<?xml version="1.0" encoding="UTF-8" standalone="no"?>
<!DOCTYPE svg PUBLIC "-//W3C//DTD SVG 1.1//EN" "http://www.w3.org/Graphics/SVG/1.1/DTD/svg11.dtd">
<svg width="100%" height="100%" viewBox="0 0 801 801" version="1.1" xmlns="http://www.w3.org/2000/svg" xmlns:xlink="http://www.w3.org/1999/xlink" xml:space="preserve" xmlns:serif="http://www.serif.com/" style="fill-rule:evenodd;clip-rule:evenodd;stroke-linejoin:round;stroke-miterlimit:2;">
    <g transform="matrix(1,0,0,1,-839,-1464)">
        <g id="Avatar--Black-" serif:id="Avatar (Black)" transform="matrix(2.27009,0,0,3.57093,837.228,-3501.72)">
            <rect x="1" y="1390.64" width="352.41" height="224.031" style="fill:none;"/>
            <g id="avatar-black" transform="matrix(1.21242,0,0,1.21242,10.5166,-250.821)">
                <g transform="matrix(1.33707,0,0,0.849991,-203.985,1314.76)">
                    <g transform="matrix(1,0,0,1,-171.595,-131.07)">
                        <path d="M398.642,301.778C398.042,304.633 397.461,307.493 396.848,310.346C396.203,313.352 395.526,316.351 394.821,319.343L394.766,319.576L385.533,319.576C380.602,319.576 375.873,317.617 372.385,314.129C368.898,310.642 366.939,305.913 366.939,300.982L366.939,300.98L398.811,300.98L398.642,301.778Z"/>
                    </g>
                    <g transform="matrix(1,0,0,1,-171.595,-131.07)">
                        <path d="M403.67,277.712C402.532,283.459 401.344,289.197 400.105,294.923L399.977,295.517L362.529,295.517C357.598,295.517 352.868,293.558 349.381,290.071C345.894,286.584 343.935,281.854 343.935,276.923L343.935,276.922L403.826,276.922L403.67,277.712Z"/>
                    </g>
                    <g transform="matrix(1,0,0,1,-171.595,-131.07)">
                        <path d="M407.69,252.963C407.595,254.24 407.454,255.512 407.292,256.782C407.118,258.155 406.919,259.525 406.708,260.894C406.176,264.337 405.564,267.768 404.925,271.193L404.874,271.467L343.498,271.467C338.566,271.467 333.837,269.508 330.35,266.021C326.863,262.534 324.904,257.804 324.904,252.873L324.904,252.872L407.697,252.872L407.69,252.963Z"/>
                    </g>
                </g>
                <g transform="matrix(3.65603,0,0,2.32419,-778.805,1033.29)">
                    <text x="241.665px" y="195.844px" style="font-family:'Inter-Regular_Bold-Italic', 'Inter', sans-serif;font-size:49.944px;">M</text>
                </g>
            </g>
        </g>
    </g>
</svg>
