<?xml version="1.0" encoding="UTF-8" standalone="no"?>
<!DOCTYPE svg PUBLIC "-//W3C//DTD SVG 1.1//EN" "http://www.w3.org/Graphics/SVG/1.1/DTD/svg11.dtd">
<svg width="100%" height="100%" viewBox="0 0 1921 401" version="1.1" xmlns="http://www.w3.org/2000/svg" xmlns:xlink="http://www.w3.org/1999/xlink" xml:space="preserve" xmlns:serif="http://www.serif.com/" style="fill-rule:evenodd;clip-rule:evenodd;stroke-linejoin:round;stroke-miterlimit:2;">
    <g transform="matrix(1,0,0,1,-2,-925)">
        <g id="Horizontal--White-" serif:id="Horizontal (White)" transform="matrix(1.5,0,0,0.555556,2.20369,925.773)">
            <rect x="0" y="0" width="1280" height="720" style="fill:none;"/>
            <clipPath id="_clip1">
                <rect x="0" y="0" width="1280" height="720"/>
            </clipPath>
            <g clip-path="url(#_clip1)">
                <g id="horizontal-black" transform="matrix(1.88107,0,0,5.07888,-28.3003,-1429.84)">
                    <g id="Logomark" transform="matrix(1.07572,0,0,1.07572,-149.873,185.507)">
                        <g transform="matrix(1,0,0,1,-171.595,-131.07)">
                            <path d="M398.642,301.778C398.042,304.633 397.461,307.493 396.848,310.346C396.203,313.352 395.526,316.351 394.821,319.343L394.766,319.576L385.533,319.576C380.602,319.576 375.873,317.617 372.385,314.129C368.898,310.642 366.939,305.913 366.939,300.982L366.939,300.98L398.811,300.98L398.642,301.778Z" style="fill:white;"/>
                        </g>
                        <g transform="matrix(1,0,0,1,-171.595,-131.07)">
                            <path d="M403.67,277.712C402.532,283.459 401.344,289.197 400.105,294.923L399.977,295.517L362.529,295.517C357.598,295.517 352.868,293.558 349.381,290.071C345.894,286.584 343.935,281.854 343.935,276.923L343.935,276.922L403.826,276.922L403.67,277.712Z" style="fill:white;"/>
                        </g>
                        <g transform="matrix(1,0,0,1,-171.595,-131.07)">
                            <path d="M407.69,252.963C407.595,254.24 407.454,255.512 407.292,256.782C407.118,258.155 406.919,259.525 406.708,260.894C406.176,264.337 405.564,267.768 404.925,271.193L404.874,271.467L343.498,271.467C338.566,271.467 333.837,269.508 330.35,266.021C326.863,262.534 324.904,257.804 324.904,252.873L324.904,252.872L407.697,252.872L407.69,252.963Z" style="fill:white;"/>
                        </g>
                    </g>
                    <g id="Marathon">
                        <g transform="matrix(146.906,0,0,146.906,98.4988,405.343)">
                            <path d="M0.138,-0.727L0.328,-0.727L0.448,-0.239L0.456,-0.239L0.737,-0.727L0.927,-0.727L0.806,-0L0.657,-0L0.736,-0.473L0.729,-0.473L0.464,-0.004L0.362,-0.004L0.252,-0.475L0.246,-0.475L0.167,-0L0.018,-0L0.138,-0.727Z" style="fill:white;fill-rule:nonzero;"/>
                        </g>
                        <g transform="matrix(97.8127,0,0,97.8127,229.128,405.343)">
                            <path d="M0.143,-0L-0.022,-0L0.35,-0.727L0.548,-0.727L0.678,-0L0.513,-0L0.425,-0.561L0.419,-0.561L0.143,-0ZM0.181,-0.286L0.57,-0.286L0.549,-0.166L0.16,-0.166L0.181,-0.286Z" style="fill:white;fill-rule:nonzero;"/>
                        </g>
                        <g transform="matrix(0.354409,0,0,0.354409,14.6182,281.527)">
                            <path d="M851.091,278.205L839.204,349.359L796.767,349.359L830.09,148.64L909.279,148.64C924.438,148.64 936.934,151.319 946.767,156.676C951.146,159.062 954.948,161.892 958.174,165.165C962.192,169.243 965.316,174.009 967.545,179.463C971.563,189.296 972.494,200.878 970.338,214.207C968.116,227.536 963.33,238.97 955.98,248.509C948.629,258.049 939.09,265.383 927.362,270.512C926.694,270.804 926.021,271.087 925.34,271.363L955.049,349.359L908.201,349.359L881.939,278.205L851.091,278.205ZM856.791,244.09L834.803,244.09L859.547,227.591L866.94,183.334L895.558,183.334C903.66,183.334 910.194,184.527 915.16,186.912C920.126,189.296 923.556,192.759 925.451,197.3C927.345,201.841 927.737,207.477 926.627,214.207C925.581,220.806 923.376,226.327 920.011,230.77C916.646,235.213 912.089,238.545 906.339,240.767C900.589,242.988 893.664,244.099 885.562,244.099L856.789,244.099L856.791,244.09Z" style="fill:white;"/>
                        </g>
                        <g transform="matrix(97.8127,0,0,97.8127,357.785,405.343)">
                            <path d="M0.143,-0L-0.022,-0L0.35,-0.727L0.548,-0.727L0.678,-0L0.513,-0L0.425,-0.561L0.419,-0.561L0.143,-0ZM0.181,-0.286L0.57,-0.286L0.549,-0.166L0.16,-0.166L0.181,-0.286Z" style="fill:white;fill-rule:nonzero;"/>
                        </g>
                        <g transform="matrix(97.8127,0,0,97.8127,412.805,405.343)">
                            <path d="M0.089,-0.6L0.111,-0.727L0.708,-0.727L0.687,-0.6L0.464,-0.6L0.365,-0L0.213,-0L0.312,-0.6L0.089,-0.6Z" style="fill:white;fill-rule:nonzero;"/>
                        </g>
                        <g transform="matrix(97.8127,0,0,97.8127,475.605,405.343)">
                            <path d="M0.018,-0L0.138,-0.727L0.292,-0.727L0.243,-0.427L0.555,-0.427L0.604,-0.727L0.758,-0.727L0.637,-0L0.484,-0L0.533,-0.3L0.221,-0.3L0.172,-0L0.018,-0Z" style="fill:white;fill-rule:nonzero;"/>
                        </g>
                        <g transform="matrix(97.8127,0,0,97.8127,547.992,405.343)">
                            <path d="M0.745,-0.354C0.732,-0.276 0.706,-0.21 0.668,-0.156C0.63,-0.102 0.584,-0.06 0.529,-0.032C0.475,-0.004 0.416,0.01 0.353,0.01C0.287,0.01 0.23,-0.005 0.182,-0.035C0.135,-0.065 0.1,-0.109 0.079,-0.166C0.058,-0.223 0.054,-0.291 0.067,-0.372C0.08,-0.45 0.105,-0.516 0.143,-0.57C0.181,-0.624 0.228,-0.666 0.283,-0.694C0.338,-0.723 0.397,-0.737 0.46,-0.737C0.525,-0.737 0.582,-0.722 0.63,-0.692C0.677,-0.661 0.712,-0.618 0.733,-0.561C0.754,-0.503 0.758,-0.434 0.745,-0.354ZM0.592,-0.372C0.6,-0.422 0.6,-0.464 0.591,-0.498C0.582,-0.532 0.566,-0.557 0.543,-0.575C0.519,-0.592 0.49,-0.601 0.454,-0.601C0.415,-0.601 0.379,-0.592 0.347,-0.572C0.315,-0.553 0.288,-0.525 0.265,-0.488C0.243,-0.451 0.228,-0.406 0.219,-0.354C0.211,-0.304 0.211,-0.262 0.22,-0.228C0.229,-0.194 0.246,-0.169 0.27,-0.152C0.294,-0.135 0.323,-0.126 0.359,-0.126C0.397,-0.126 0.433,-0.136 0.465,-0.155C0.497,-0.174 0.524,-0.202 0.546,-0.238C0.568,-0.275 0.583,-0.319 0.592,-0.372Z" style="fill:white;fill-rule:nonzero;"/>
                        </g>
                        <g transform="matrix(97.8127,0,0,97.8127,622.463,405.343)">
                            <path d="M0.747,-0.727L0.626,-0L0.493,-0L0.254,-0.458L0.248,-0.458L0.172,-0L0.018,-0L0.138,-0.727L0.273,-0.727L0.512,-0.27L0.518,-0.27L0.594,-0.727L0.747,-0.727Z" style="fill:white;fill-rule:nonzero;"/>
                        </g>
                    </g>
                </g>
            </g>
        </g>
    </g>
</svg>
